<?xml version="1.0" standalone="no"?>
<!DOCTYPE svg PUBLIC "-//W3C//DTD SVG 20010904//EN"
 "http://www.w3.org/TR/2001/REC-SVG-20010904/DTD/svg10.dtd">
<svg version="1.0" xmlns="http://www.w3.org/2000/svg"
 width="30pt" height="50pt" viewBox="0 0 90 110"
 preserveAspectRatio="xMidYMid meet">

<g transform="translate(0.000000,106.000000) scale(0.100000,-0.100000)"
fill="red" stroke="none">
<path d="M254 945 c-15 -39 34 -201 79 -260 15 -19 15 -16 15 35 -2 78 9 114
48 165 19 25 34 48 34 51 0 9 -63 -7 -87 -23 -19 -13 -23 -12 -33 6 -16 31
-49 46 -56 26z"/>
<path d="M218 710 c-50 -84 -61 -121 -61 -205 0 -92 22 -159 82 -251 40 -62
150 -185 132 -147 -16 33 -13 75 8 107 l19 29 -35 55 c-65 102 -107 249 -116
412 l-2 45 -27 -45z"/>
<path d="M274 660 c9 -114 30 -198 67 -273 72 -148 221 -234 334 -194 28 10
51 11 79 5 21 -5 41 -7 43 -4 10 10 -30 94 -72 150 -58 78 -124 131 -214 173
-95 43 -154 91 -204 167 l-39 61 6 -85z"/>
<path d="M370 701 c0 -70 39 -112 160 -169 132 -63 258 -188 300 -300 l18 -47
9 50 c4 28 8 93 8 145 -2 268 -109 371 -326 315 -66 -17 -116 -10 -150 21 -18
16 -19 16 -19 -15z"/>
</g>
</svg>
